<svg width="72" height="72" viewBox="0 0 72 72" fill="none" xmlns="http://www.w3.org/2000/svg">
<rect width="72" height="72" rx="36" fill="#34D399" fill-opacity="0.8"/>
<path d="M28.5 31C28.5 31.3315 28.3683 31.6495 28.1339 31.8839C27.8995 32.1183 27.5815 32.25 27.25 32.25H19.75C19.4185 32.25 19.1005 32.1183 18.8661 31.8839C18.6317 31.6495 18.5 31.3315 18.5 31C18.5 30.6685 18.6317 30.3505 18.8661 30.1161C19.1005 29.8817 19.4185 29.75 19.75 29.75H27.25C27.5815 29.75 27.8995 29.8817 28.1339 30.1161C28.3683 30.3505 28.5 30.6685 28.5 31ZM27.25 34.75H19.75C19.4185 34.75 19.1005 34.8817 18.8661 35.1161C18.6317 35.3505 18.5 35.6685 18.5 36C18.5 36.3315 18.6317 36.6495 18.8661 36.8839C19.1005 37.1183 19.4185 37.25 19.75 37.25H27.25C27.5815 37.25 27.8995 37.1183 28.1339 36.8839C28.3683 36.6495 28.5 36.3315 28.5 36C28.5 35.6685 28.3683 35.3505 28.1339 35.1161C27.8995 34.8817 27.5815 34.75 27.25 34.75ZM27.25 39.75H19.75C19.4185 39.75 19.1005 39.8817 18.8661 40.1161C18.6317 40.3505 18.5 40.6685 18.5 41C18.5 41.3315 18.6317 41.6495 18.8661 41.8839C19.1005 42.1183 19.4185 42.25 19.75 42.25H27.25C27.5815 42.25 27.8995 42.1183 28.1339 41.8839C28.3683 41.6495 28.5 41.3315 28.5 41C28.5 40.6685 28.3683 40.3505 28.1339 40.1161C27.8995 39.8817 27.5815 39.75 27.25 39.75ZM27.25 44.75H19.75C19.4185 44.75 19.1005 44.8817 18.8661 45.1161C18.6317 45.3505 18.5 45.6685 18.5 46C18.5 46.3315 18.6317 46.6495 18.8661 46.8839C19.1005 47.1183 19.4185 47.25 19.75 47.25H27.25C27.5815 47.25 27.8995 47.1183 28.1339 46.8839C28.3683 46.6495 28.5 46.3315 28.5 46C28.5 45.6685 28.3683 45.3505 28.1339 45.1161C27.8995 44.8817 27.5815 44.75 27.25 44.75ZM39.75 34.75H32.25C31.9185 34.75 31.6005 34.8817 31.3661 35.1161C31.1317 35.3505 31 35.6685 31 36C31 36.3315 31.1317 36.6495 31.3661 36.8839C31.6005 37.1183 31.9185 37.25 32.25 37.25H39.75C40.0815 37.25 40.3995 37.1183 40.6339 36.8839C40.8683 36.6495 41 36.3315 41 36C41 35.6685 40.8683 35.3505 40.6339 35.1161C40.3995 34.8817 40.0815 34.75 39.75 34.75ZM39.75 39.75H32.25C31.9185 39.75 31.6005 39.8817 31.3661 40.1161C31.1317 40.3505 31 40.6685 31 41C31 41.3315 31.1317 41.6495 31.3661 41.8839C31.6005 42.1183 31.9185 42.25 32.25 42.25H39.75C40.0815 42.25 40.3995 42.1183 40.6339 41.8839C40.8683 41.6495 41 41.3315 41 41C41 40.6685 40.8683 40.3505 40.6339 40.1161C40.3995 39.8817 40.0815 39.75 39.75 39.75ZM39.75 44.75H32.25C31.9185 44.75 31.6005 44.8817 31.3661 45.1161C31.1317 45.3505 31 45.6685 31 46C31 46.3315 31.1317 46.6495 31.3661 46.8839C31.6005 47.1183 31.9185 47.25 32.25 47.25H39.75C40.0815 47.25 40.3995 47.1183 40.6339 46.8839C40.8683 46.6495 41 46.3315 41 46C41 45.6685 40.8683 45.3505 40.6339 45.1161C40.3995 44.8817 40.0815 44.75 39.75 44.75ZM52.25 29.75H44.75C44.4185 29.75 44.1005 29.8817 43.8661 30.1161C43.6317 30.3505 43.5 30.6685 43.5 31C43.5 31.3315 43.6317 31.6495 43.8661 31.8839C44.1005 32.1183 44.4185 32.25 44.75 32.25H52.25C52.5815 32.25 52.8995 32.1183 53.1339 31.8839C53.3683 31.6495 53.5 31.3315 53.5 31C53.5 30.6685 53.3683 30.3505 53.1339 30.1161C52.8995 29.8817 52.5815 29.75 52.25 29.75ZM44.75 27.25H52.25C52.5815 27.25 52.8995 27.1183 53.1339 26.8839C53.3683 26.6495 53.5 26.3315 53.5 26C53.5 25.6685 53.3683 25.3505 53.1339 25.1161C52.8995 24.8817 52.5815 24.75 52.25 24.75H44.75C44.4185 24.75 44.1005 24.8817 43.8661 25.1161C43.6317 25.3505 43.5 25.6685 43.5 26C43.5 26.3315 43.6317 26.6495 43.8661 26.8839C44.1005 27.1183 44.4185 27.25 44.75 27.25ZM52.25 34.75H44.75C44.4185 34.75 44.1005 34.8817 43.8661 35.1161C43.6317 35.3505 43.5 35.6685 43.5 36C43.5 36.3315 43.6317 36.6495 43.8661 36.8839C44.1005 37.1183 44.4185 37.25 44.75 37.25H52.25C52.5815 37.25 52.8995 37.1183 53.1339 36.8839C53.3683 36.6495 53.5 36.3315 53.5 36C53.5 35.6685 53.3683 35.3505 53.1339 35.1161C52.8995 34.8817 52.5815 34.75 52.25 34.75ZM52.25 39.75H44.75C44.4185 39.75 44.1005 39.8817 43.8661 40.1161C43.6317 40.3505 43.5 40.6685 43.5 41C43.5 41.3315 43.6317 41.6495 43.8661 41.8839C44.1005 42.1183 44.4185 42.25 44.75 42.25H52.25C52.5815 42.25 52.8995 42.1183 53.1339 41.8839C53.3683 41.6495 53.5 41.3315 53.5 41C53.5 40.6685 53.3683 40.3505 53.1339 40.1161C52.8995 39.8817 52.5815 39.75 52.25 39.75ZM52.25 44.75H44.75C44.4185 44.75 44.1005 44.8817 43.8661 45.1161C43.6317 45.3505 43.5 45.6685 43.5 46C43.5 46.3315 43.6317 46.6495 43.8661 46.8839C44.1005 47.1183 44.4185 47.25 44.75 47.25H52.25C52.5815 47.25 52.8995 47.1183 53.1339 46.8839C53.3683 46.6495 53.5 46.3315 53.5 46C53.5 45.6685 53.3683 45.3505 53.1339 45.1161C52.8995 44.8817 52.5815 44.75 52.25 44.75Z" fill="white"/>
</svg>
