<svg width="22" height="21" viewBox="0 0 22 21" fill="none" xmlns="http://www.w3.org/2000/svg">
<path d="M20.9666 9.76807L16.7478 13.4084L18.0331 18.8524C18.1041 19.148 18.0858 19.4579 17.9807 19.7431C17.8755 20.0282 17.6882 20.2758 17.4425 20.4546C17.1967 20.6334 16.9034 20.7353 16.5997 20.7475C16.2961 20.7597 15.9956 20.6816 15.7363 20.5231L11.0019 17.6093L6.26471 20.5231C6.00542 20.6807 5.7053 20.758 5.40215 20.7454C5.099 20.7327 4.80636 20.6307 4.56108 20.4521C4.31581 20.2734 4.12887 20.0262 4.02381 19.7416C3.91874 19.457 3.90024 19.1476 3.97064 18.8524L5.26064 13.4084L1.04189 9.76807C0.812487 9.5698 0.646574 9.30834 0.564878 9.01634C0.483182 8.72433 0.489323 8.41473 0.582534 8.1262C0.675745 7.83767 0.851894 7.58299 1.08898 7.39397C1.32607 7.20495 1.6136 7.08997 1.91564 7.06339L7.44689 6.61714L9.58064 1.45339C9.69614 1.17196 9.89271 0.931243 10.1454 0.761827C10.398 0.592411 10.6954 0.501953 10.9996 0.501953C11.3037 0.501953 11.6011 0.592411 11.8537 0.761827C12.1064 0.931243 12.303 1.17196 12.4185 1.45339L14.5513 6.61714L20.0825 7.06339C20.3852 7.08898 20.6735 7.20332 20.9115 7.39208C21.1494 7.58084 21.3264 7.83562 21.4202 8.1245C21.514 8.41338 21.5204 8.72352 21.4387 9.01606C21.357 9.30859 21.1908 9.57051 20.961 9.76901L20.9666 9.76807Z" fill="#33CBA0"/>
</svg>
