<svg width="96" height="64" viewBox="0 0 96 64" fill="none" xmlns="http://www.w3.org/2000/svg">
<g id="Logo" clip-path="url(#clip0_4177_12446)">
<path id="Vector" d="M61.2333 31.2106L60.6877 29.9187L59.4949 27.0844L50.4195 5.54473L48.4681 0.911133L46.472 5.60142L37.7333 26.1783L36.1041 25.5749L34.6917 28.9038L36.317 29.5073L32.3164 38.9244L34.9777 41.8821L39.7007 30.7589L49.0955 34.2451L53.194 35.7637L51.986 31.4666L51.1543 28.5025L56.7527 30.0055L59.5956 30.769L57.7002 32.2574L61.7418 41.8437L64.4593 38.8769L61.2333 31.2106ZM50.0498 24.5518L46.0766 23.483L47.1879 27.4401L47.894 29.9489L41.1217 27.4373L48.4273 10.2378L55.0199 25.8858L50.0498 24.5518Z" fill="#34D399" fill-opacity="0.8"/>
<path id="Vector_2" d="M9.63929 59.8023H8.25812L7.12941 56.9308H2.61456L1.55267 59.8023H0.164062L4.24822 49.5594H5.5403L9.63929 59.8023ZM6.72099 55.8523L5.0502 51.4879C4.99575 51.3451 4.94129 51.1165 4.88683 50.8022H4.85714C4.80763 51.0927 4.7507 51.3212 4.68634 51.4879L3.0304 55.8523H6.72099ZM21.8473 59.8023H20.6294V55.6022C20.6294 54.7927 20.4982 54.207 20.2359 53.8451C19.9784 53.4832 19.5428 53.3022 18.929 53.3022C18.4091 53.3022 17.966 53.5308 17.5997 53.9879C17.2383 54.4451 17.0576 54.9927 17.0576 55.6308V59.8023H15.8398V55.4594C15.8398 54.0213 15.2631 53.3022 14.1097 53.3022C13.5749 53.3022 13.1344 53.5189 12.7878 53.9522C12.4413 54.3808 12.268 54.9404 12.268 55.6308V59.8023H11.0502V52.488H12.268V53.6451H12.2977C12.8373 52.7594 13.6244 52.3165 14.6591 52.3165C15.179 52.3165 15.6319 52.457 16.0181 52.7379C16.4042 53.0141 16.6691 53.3784 16.8126 53.8308C17.3769 52.8213 18.2186 52.3165 19.3374 52.3165C21.0106 52.3165 21.8473 53.3094 21.8473 55.2951V59.8023ZM25.3968 58.7451H25.367V63.1665H24.1492V52.488H25.367V53.7736H25.3968C25.9958 52.8022 26.872 52.3165 28.0255 52.3165C29.0056 52.3165 29.7705 52.6451 30.32 53.3022C30.8695 53.9546 31.1442 54.8308 31.1442 55.9308C31.1442 57.1546 30.8349 58.1356 30.2161 58.8737C29.5972 59.607 28.7507 59.9737 27.6765 59.9737C26.6913 59.9737 25.9313 59.5642 25.3968 58.7451ZM25.367 55.7951V56.8166C25.367 57.4213 25.57 57.9356 25.9759 58.3594C26.3868 58.7784 26.9066 58.988 27.5354 58.988C28.273 58.988 28.8497 58.7165 29.2656 58.1736C29.6864 57.6308 29.8967 56.8761 29.8967 55.9094C29.8967 55.0951 29.7012 54.457 29.3101 53.9951C28.919 53.5332 28.3893 53.3022 27.721 53.3022C27.0131 53.3022 26.4438 53.5403 26.0131 54.0166C25.5824 54.488 25.367 55.0808 25.367 55.7951ZM39.2012 56.438H33.8324C33.8522 57.2522 34.0799 57.8808 34.5155 58.3237C34.9512 58.7665 35.5502 58.988 36.3126 58.988C37.169 58.988 37.9562 58.7165 38.674 58.1736V59.2737C38.0057 59.7404 37.122 59.9737 36.0229 59.9737C34.9487 59.9737 34.1047 59.6427 33.4908 58.9808C32.8769 58.3142 32.57 57.3784 32.57 56.1736C32.57 55.0355 32.9042 54.1094 33.5725 53.3951C34.2457 52.676 35.0799 52.3165 36.0749 52.3165C37.07 52.3165 37.8398 52.626 38.3843 53.2451C38.9289 53.8641 39.2012 54.7237 39.2012 55.8236V56.438ZM37.9537 55.4451C37.9487 54.7689 37.7779 54.2428 37.4413 53.8665C37.1096 53.4903 36.6468 53.3022 36.0527 53.3022C35.4784 53.3022 34.9908 53.4999 34.5898 53.8951C34.1889 54.2903 33.9413 54.807 33.8473 55.4451H37.9537ZM47.5403 59.8023H46.3225V58.5594H46.2928C45.7284 59.5023 44.8571 59.9737 43.6789 59.9737C42.7235 59.9737 41.9586 59.6475 41.3844 58.9951C40.8151 58.3379 40.5304 57.4451 40.5304 56.3165C40.5304 55.107 40.8473 54.138 41.4809 53.4094C42.1146 52.6808 42.9586 52.3165 44.0131 52.3165C45.0576 52.3165 45.8175 52.7118 46.2928 53.5023H46.3225V48.9736H47.5403V59.8023ZM46.3225 56.4951V55.4165C46.3225 54.8261 46.1195 54.326 45.7136 53.9165C45.3077 53.507 44.7928 53.3022 44.1691 53.3022C43.4264 53.3022 42.8423 53.5642 42.4165 54.088C41.9908 54.6118 41.7779 55.3356 41.7779 56.2594C41.7779 57.1023 41.9809 57.7689 42.3869 58.2594C42.7977 58.7451 43.3473 58.988 44.0353 58.988C44.7136 58.988 45.2631 58.7522 45.6839 58.2808C46.1096 57.8094 46.3225 57.2142 46.3225 56.4951Z" fill="#34D399" fill-opacity="0.8"/>
<path id="Vector_3" d="M53.8438 59.388V57.9737C54.0121 58.1165 54.2126 58.2451 54.4452 58.3594C54.6828 58.4737 54.9305 58.5713 55.1878 58.6523C55.4502 58.7284 55.7126 58.7879 55.9749 58.8308C56.2374 58.8737 56.4799 58.8951 56.7026 58.8951C57.47 58.8951 58.0418 58.7594 58.418 58.488C58.7993 58.2118 58.9898 57.8165 58.9898 57.3022C58.9898 57.026 58.9255 56.7856 58.7968 56.5808C58.673 56.3761 58.4998 56.1904 58.277 56.0237C58.0542 55.8523 57.7894 55.6903 57.4824 55.5379C57.1805 55.3808 56.8537 55.2166 56.5022 55.0451C56.1309 54.8641 55.7844 54.6808 55.4626 54.4951C55.1408 54.3094 54.8612 54.1046 54.6235 53.8808C54.3859 53.657 54.1977 53.4046 54.0591 53.1237C53.9255 52.838 53.8587 52.5046 53.8587 52.1236C53.8587 51.657 53.965 51.2522 54.1779 50.9094C54.3909 50.5617 54.6705 50.276 55.017 50.0522C55.3636 49.8284 55.7572 49.6617 56.1977 49.5522C56.6433 49.4428 57.0962 49.388 57.5567 49.388C58.6062 49.388 59.371 49.5094 59.8513 49.7522V51.1023C59.2225 50.6832 58.4155 50.4737 57.4304 50.4737C57.1581 50.4737 56.8859 50.5022 56.6136 50.5594C56.3413 50.6118 56.0987 50.6999 55.8859 50.8237C55.673 50.9475 55.4997 51.107 55.3661 51.3022C55.2324 51.4974 55.1656 51.7356 55.1656 52.0166C55.1656 52.2784 55.215 52.5046 55.3141 52.6951C55.4181 52.8856 55.569 53.0594 55.7671 53.2166C55.9651 53.3736 56.2052 53.526 56.4874 53.6737C56.7745 53.8213 57.1037 53.9832 57.475 54.1594C57.8562 54.3403 58.2175 54.5308 58.5592 54.7308C58.9008 54.9308 59.2003 55.1522 59.4577 55.3951C59.7151 55.638 59.9181 55.907 60.0665 56.2023C60.2201 56.4975 60.2968 56.8356 60.2968 57.2166C60.2968 57.7212 60.1928 58.1499 59.9849 58.5022C59.7819 58.8498 59.5047 59.1332 59.1532 59.3522C58.8067 59.5713 58.4057 59.7285 57.9503 59.8236C57.4948 59.9237 57.0146 59.9737 56.5096 59.9737C56.3413 59.9737 56.1334 59.9594 55.8859 59.9308C55.6384 59.907 55.3858 59.8689 55.1284 59.8165C54.871 59.7689 54.626 59.7094 54.3933 59.638C54.1656 59.5618 53.9824 59.4784 53.8438 59.388ZM65.2943 59.7308C65.0071 59.8832 64.6284 59.9594 64.1581 59.9594C62.8265 59.9594 62.1606 59.2451 62.1606 57.8165V53.4879H60.8537V52.488H62.1606V50.7023L63.3785 50.3237V52.488H65.2943V53.4879H63.3785V57.6093C63.3785 58.0999 63.465 58.4498 63.6383 58.6594C63.8116 58.8689 64.0987 58.9736 64.4997 58.9736C64.8067 58.9736 65.0715 58.8927 65.2943 58.7308V59.7308ZM73.069 59.8023H71.8513V58.6451H71.8215C71.3165 59.5308 70.5343 59.9737 69.475 59.9737C67.6631 59.9737 66.7572 58.9356 66.7572 56.8593V52.488H67.9675V56.6737C67.9675 58.2165 68.5814 58.988 69.8091 58.988C70.4032 58.988 70.8908 58.7784 71.272 58.3594C71.6581 57.9356 71.8513 57.3831 71.8513 56.7023V52.488H73.069V59.8023ZM82.0245 59.8023H80.8066V58.5594H80.777C80.2126 59.5023 79.3413 59.9737 78.1631 59.9737C77.2077 59.9737 76.4428 59.6475 75.8685 58.9951C75.2993 58.3379 75.0146 57.4451 75.0146 56.3165C75.0146 55.107 75.3314 54.138 75.9651 53.4094C76.5987 52.6808 77.4428 52.3165 78.4972 52.3165C79.5418 52.3165 80.3017 52.7118 80.777 53.5023H80.8066V48.9736H82.0245V59.8023ZM80.8066 56.4951V55.4165C80.8066 54.8261 80.6037 54.326 80.1977 53.9165C79.7918 53.507 79.2769 53.3022 78.6532 53.3022C77.9107 53.3022 77.3265 53.5642 76.9007 54.088C76.4749 54.6118 76.2621 55.3356 76.2621 56.2594C76.2621 57.1023 76.4651 57.7689 76.871 58.2594C77.2819 58.7451 77.8314 58.988 78.5195 58.988C79.1977 58.988 79.7472 58.7522 80.1681 58.2808C80.5938 57.8094 80.8066 57.2142 80.8066 56.4951ZM85.1136 50.6308C84.8958 50.6308 84.7101 50.5594 84.5566 50.4166C84.4032 50.2737 84.3265 50.0927 84.3265 49.8737C84.3265 49.6546 84.4032 49.4737 84.5566 49.3308C84.7101 49.1832 84.8958 49.1094 85.1136 49.1094C85.3363 49.1094 85.5245 49.1832 85.6779 49.3308C85.8364 49.4737 85.9155 49.6546 85.9155 49.8737C85.9155 50.0832 85.8364 50.2618 85.6779 50.4093C85.5245 50.557 85.3363 50.6308 85.1136 50.6308ZM85.7077 59.8023H84.4898V52.488H85.7077V59.8023ZM91.3512 59.9737C90.2275 59.9737 89.329 59.6332 88.6556 58.9522C87.9873 58.2665 87.6532 57.3594 87.6532 56.2308C87.6532 55.0023 88.0022 54.0427 88.7002 53.3522C89.3982 52.6618 90.3413 52.3165 91.5294 52.3165C92.6631 52.3165 93.5468 52.6523 94.1804 53.3236C94.819 53.9951 95.1386 54.926 95.1386 56.1165C95.1386 57.2832 94.7943 58.2189 94.1061 58.9236C93.423 59.6237 92.5047 59.9737 91.3512 59.9737ZM91.4403 53.3022C90.6581 53.3022 90.0394 53.5594 89.5839 54.0737C89.1284 54.5831 88.9007 55.288 88.9007 56.188C88.9007 57.0546 89.1309 57.738 89.5913 58.2379C90.0517 58.7379 90.668 58.988 91.4403 58.988C92.2274 58.988 92.8314 58.7427 93.2522 58.2523C93.6779 57.7618 93.8908 57.0641 93.8908 56.1594C93.8908 55.2451 93.6779 54.5404 93.2522 54.0451C92.8314 53.5498 92.2274 53.3022 91.4403 53.3022Z" fill="#060606"/>
</g>
<defs>
<clipPath id="clip0_4177_12446">
<rect width="96" height="64" fill="white"/>
</clipPath>
</defs>
</svg>
