<svg width="72" height="72" viewBox="0 0 72 72" fill="none" xmlns="http://www.w3.org/2000/svg">
<rect width="72" height="72" rx="36" fill="#34D399" fill-opacity="0.8"/>
<path d="M54.7501 35.9997C54.7503 37.7303 54.2372 39.4222 53.2757 40.8612C52.3143 42.3003 50.9476 43.4219 49.3487 44.0842C47.7498 44.7465 45.9904 44.9198 44.2929 44.5821C42.5955 44.2445 41.0364 43.411 39.8126 42.1872L39.7611 42.1325L30.3939 31.5543C29.5169 30.6876 28.4032 30.0997 27.1928 29.8644C25.9825 29.6292 24.7296 29.7573 23.5918 30.2325C22.454 30.7077 21.4823 31.5088 20.7987 32.535C20.1152 33.5612 19.7505 34.7667 19.7505 35.9997C19.7505 37.2327 20.1152 38.4381 20.7987 39.4643C21.4823 40.4905 22.454 41.2917 23.5918 41.7669C24.7296 42.242 25.9825 42.3701 27.1928 42.1349C28.4032 41.8997 29.5169 41.3117 30.3939 40.445L31.7251 38.9418C31.834 38.8187 31.966 38.7183 32.1137 38.6462C32.2614 38.5741 32.4218 38.5318 32.5859 38.5217C32.7499 38.5116 32.9143 38.534 33.0697 38.5874C33.2251 38.6409 33.3684 38.7244 33.4916 38.8333C33.6147 38.9421 33.7151 39.0741 33.7872 39.2218C33.8593 39.3695 33.9016 39.5299 33.9117 39.694C33.9218 39.858 33.8994 40.0224 33.846 40.1778C33.7925 40.3332 33.709 40.4765 33.6001 40.5997L32.2423 42.1325L32.1908 42.1872C30.967 43.4108 29.4079 44.244 27.7106 44.5816C26.0133 44.9191 24.254 44.7458 22.6552 44.0835C21.0564 43.4212 19.6899 42.2997 18.7285 40.8608C17.7671 39.4219 17.2539 37.7302 17.2539 35.9997C17.2539 34.2691 17.7671 32.5774 18.7285 31.1385C19.6899 29.6996 21.0564 28.5781 22.6552 27.9158C24.254 27.2535 26.0133 27.0802 27.7106 27.4177C29.4079 27.7553 30.967 28.5885 32.1908 29.8122L32.2423 29.8668L41.6095 40.445C42.4865 41.3117 43.6002 41.8997 44.8106 42.1349C46.021 42.3701 47.2739 42.242 48.4116 41.7669C49.5494 41.2917 50.5212 40.4905 51.2047 39.4643C51.8882 38.4381 52.2529 37.2327 52.2529 35.9997C52.2529 34.7667 51.8882 33.5612 51.2047 32.535C50.5212 31.5088 49.5494 30.7077 48.4116 30.2325C47.2739 29.7573 46.021 29.6292 44.8106 29.8644C43.6002 30.0997 42.4865 30.6876 41.6095 31.5543L40.2783 33.0575C40.0584 33.3061 39.7488 33.4572 39.4176 33.4776C39.0863 33.498 38.7605 33.3859 38.5119 33.1661C38.2632 32.9462 38.1121 32.6366 38.0917 32.3054C38.0714 31.9741 38.1834 31.6483 38.4033 31.3997L39.7611 29.8668L39.8126 29.8122C41.0364 28.5883 42.5955 27.7549 44.2929 27.4172C45.9904 27.0795 47.7498 27.2528 49.3487 27.9151C50.9476 28.5774 52.3143 29.699 53.2757 31.1381C54.2372 32.5771 54.7503 34.269 54.7501 35.9997Z" fill="white"/>
</svg>
