<svg width="72" height="72" viewBox="0 0 72 72" fill="none" xmlns="http://www.w3.org/2000/svg">
<rect width="72" height="72" rx="36" fill="#34D399" fill-opacity="0.8"/>
<path d="M49.75 31.0004C49.7514 28.6832 49.1671 26.4032 48.0515 24.3723C46.9359 22.3413 45.3251 20.6252 43.3688 19.3834C41.4125 18.1416 39.174 17.4144 36.8614 17.2692C34.5488 17.124 32.2369 17.5657 30.1407 18.5531C28.0444 19.5405 26.2317 21.0417 24.8709 22.9172C23.5101 24.7927 22.6453 26.9817 22.3569 29.2809C22.0685 31.5801 22.3659 33.9148 23.2213 36.0683C24.0767 38.2218 25.4626 40.1242 27.25 41.5988V53.5004C27.2498 53.7135 27.3042 53.9232 27.4079 54.1095C27.5117 54.2957 27.6613 54.4523 27.8426 54.5644C28.0239 54.6765 28.2309 54.7404 28.4439 54.75C28.6569 54.7596 28.8687 54.7145 29.0594 54.6191L36 51.1566L42.9422 54.6269C43.1162 54.7102 43.3071 54.7524 43.5 54.7504C43.8315 54.7504 44.1495 54.6187 44.3839 54.3842C44.6183 54.1498 44.75 53.8319 44.75 53.5004V41.5988C46.314 40.3107 47.5734 38.6924 48.4378 36.86C49.3023 35.0275 49.7504 33.0265 49.75 31.0004ZM24.75 31.0004C24.75 28.7753 25.4098 26.6002 26.646 24.7502C27.8821 22.9001 29.6391 21.4582 31.6948 20.6067C33.7505 19.7552 36.0125 19.5324 38.1948 19.9665C40.3771 20.4006 42.3816 21.4721 43.955 23.0454C45.5283 24.6187 46.5998 26.6233 47.0338 28.8056C47.4679 30.9879 47.2451 33.2499 46.3936 35.3055C45.5422 37.3612 44.1002 39.1182 42.2502 40.3544C40.4001 41.5906 38.225 42.2504 36 42.2504C33.0173 42.247 30.1578 41.0607 28.0487 38.9517C25.9396 36.8426 24.7533 33.983 24.75 31.0004ZM42.25 51.4785L36.5578 48.6332C36.3842 48.5463 36.1926 48.501 35.9984 48.501C35.8042 48.501 35.6127 48.5463 35.4391 48.6332L29.75 51.4785V43.2457C31.6849 44.2346 33.827 44.7503 36 44.7503C38.173 44.7503 40.3151 44.2346 42.25 43.2457V51.4785ZM36 39.7504C37.7306 39.7504 39.4223 39.2372 40.8612 38.2757C42.3002 37.3143 43.4217 35.9477 44.0839 34.3488C44.7462 32.75 44.9195 30.9906 44.5819 29.2933C44.2443 27.596 43.4109 26.0369 42.1872 24.8132C40.9635 23.5895 39.4044 22.7561 37.707 22.4185C36.0097 22.0809 34.2504 22.2541 32.6515 22.9164C31.0527 23.5787 29.6861 24.7002 28.7246 26.1391C27.7632 27.578 27.25 29.2698 27.25 31.0004C27.2525 33.3202 28.1752 35.5444 29.8156 37.1848C31.456 38.8252 33.6801 39.7479 36 39.7504ZM36 24.7504C37.2361 24.7504 38.4445 25.1169 39.4723 25.8037C40.5001 26.4904 41.3012 27.4665 41.7742 28.6086C42.2473 29.7506 42.3711 31.0073 42.1299 32.2197C41.8888 33.432 41.2935 34.5457 40.4194 35.4198C39.5453 36.2938 38.4317 36.8891 37.2193 37.1303C36.0069 37.3714 34.7503 37.2476 33.6082 36.7746C32.4662 36.3016 31.4901 35.5005 30.8033 34.4727C30.1166 33.4449 29.75 32.2365 29.75 31.0004C29.75 29.3427 30.4085 27.753 31.5806 26.5809C32.7527 25.4088 34.3424 24.7504 36 24.7504Z" fill="white"/>
</svg>
