<svg width="72" height="72" viewBox="0 0 72 72" fill="none" xmlns="http://www.w3.org/2000/svg">
<rect width="72" height="72" rx="36" fill="#34D399" fill-opacity="0.8"/>
<path d="M49.2688 18.764C49.119 18.6473 48.9447 18.5663 48.759 18.527C48.5732 18.4878 48.381 18.4913 48.1969 18.5374L28.1969 23.5374C27.9265 23.605 27.6864 23.7611 27.5148 23.9808C27.3433 24.2004 27.25 24.4712 27.25 24.7499V41.9499C26.2072 41.2532 24.9616 40.9249 23.7109 41.0173C22.4602 41.1096 21.2762 41.6172 20.347 42.4595C19.4179 43.3018 18.7969 44.4305 18.5827 45.6662C18.3685 46.9018 18.5733 48.1737 19.1647 49.2796C19.7561 50.3855 20.7001 51.262 21.8467 51.77C22.9934 52.2779 24.2769 52.3881 25.4933 52.083C26.7097 51.778 27.7893 51.0752 28.5606 50.0862C29.3318 49.0973 29.7505 47.879 29.75 46.6249V33.2265L47.25 28.8515V36.9499C46.2072 36.2532 44.9616 35.9249 43.7109 36.0173C42.4602 36.1096 41.2762 36.6172 40.3471 37.4595C39.4179 38.3018 38.7969 39.4305 38.5827 40.6662C38.3685 41.9018 38.5733 43.1737 39.1647 44.2796C39.7561 45.3855 40.7001 46.262 41.8467 46.77C42.9934 47.2779 44.2769 47.3881 45.4933 47.083C46.7097 46.778 47.7893 46.0752 48.5606 45.0862C49.3318 44.0973 49.7505 42.879 49.75 41.6249V19.7499C49.75 19.5598 49.7067 19.3722 49.6233 19.2013C49.5399 19.0305 49.4187 18.8809 49.2688 18.764ZM24.125 49.7499C23.5069 49.7499 22.9028 49.5666 22.3889 49.2233C21.8749 48.8799 21.4744 48.3918 21.2379 47.8208C21.0014 47.2498 20.9395 46.6215 21.0601 46.0153C21.1806 45.4091 21.4783 44.8523 21.9153 44.4152C22.3523 43.9782 22.9092 43.6805 23.5154 43.56C24.1215 43.4394 24.7499 43.5013 25.3209 43.7378C25.8919 43.9743 26.38 44.3749 26.7234 44.8888C27.0667 45.4027 27.25 46.0069 27.25 46.6249C27.25 47.4537 26.9208 48.2486 26.3347 48.8346C25.7487 49.4207 24.9538 49.7499 24.125 49.7499ZM29.75 30.6484V25.7265L47.25 21.3515V26.2734L29.75 30.6484ZM44.125 44.7499C43.5069 44.7499 42.9028 44.5666 42.3889 44.2233C41.8749 43.8799 41.4744 43.3918 41.2379 42.8208C41.0014 42.2498 40.9395 41.6215 41.0601 41.0153C41.1806 40.4091 41.4783 39.8523 41.9153 39.4152C42.3523 38.9782 42.9092 38.6805 43.5153 38.56C44.1215 38.4394 44.7499 38.5013 45.3209 38.7378C45.8919 38.9743 46.38 39.3749 46.7234 39.8888C47.0667 40.4027 47.25 41.0069 47.25 41.6249C47.25 42.4537 46.9208 43.2486 46.3347 43.8346C45.7487 44.4207 44.9538 44.7499 44.125 44.7499Z" fill="white"/>
</svg>
